<?xml version="1.0" encoding="UTF-8"?><svg id="Layer_1" xmlns="http://www.w3.org/2000/svg" viewBox="0 0 300 300"><defs><style>.cls-1{fill:#2d2a2b;}.cls-1,.cls-2{stroke-width:0px;}.cls-2{fill:#231f20;}</style></defs><path class="cls-1" d="m59.78,101.24c-.04-.3.15-.76.43-1.03l8.72-8.72c1.38-.73,2.5-.27,2.5,1.03v58.09c.04.3-.15.76-.43,1.04l-9.64,9.64c-.87.46-1.58.17-1.58-.66v-59.39Zm0,73.17c0-.81.66-1.47,1.47-1.47h26.37c.81,0,1.47.66,1.47,1.47v15.29c0,.81-.66,1.47-1.47,1.47h-26.37c-.81,0-1.47-.66-1.47-1.47v-15.29Zm29.23-13.71c-.29.95-1,1.24-1.58.66l-9.71-9.71c-.24-.18-.43-.65-.43-1.04v-58.09c.46-1.49,1.58-1.96,2.5-1.03l8.79,8.79c.24.18.43.65.43,1.04v59.39Zm-5.16,5.37c.3.56.11,1.02-.42,1.02h-18.14c-.61-.19-.8-.64-.42-1.02l8.45-8.45c.57-.57,1.5-.57,2.07,0l8.45,8.45Zm-29.94,20.62s0,.05,0,.07v7.61c0,1.46,1.19,2.65,2.65,2.65h35.72c1.46,0,2.65-1.19,2.65-2.65v-7.61s.01-.1.02-.15v-6.8c0-.93,0-1.69,0-1.71,0-.02-.01-.08-.01-.13v-15.29c0-.05.01-.1.01-.13,0-.01,0-.78,0-1.71v-60.8c0-.93-.53-2.22-1.19-2.87l-16.71-16.71c-.35-.42-1.2-.88-1.9-1.03h-1.62c-.51.03-1.36.49-1.9,1.03l-16.55,16.55c-.66.66-1.19,1.94-1.19,2.87v71.97c0,.93,0,2.44,0,3.37,0,0,0-1.68,0,1.06,0,.93,0,1.69,0,1.7,0,.01,0,.04,0,.05,0,0,0,.77,0,1.7v6.96Z"/><rect class="cls-1" x="63.49" y="176.57" width="21.88" height="7.29" rx="1.68" ry="1.68"/><path class="cls-1" d="m91.82,214.91c.94,1.32,1.84,1.08,1.99-.53,0,0,2.01-5.1.9-9.24-.61-2.29-2.97-3.65-5.26-3.03-2.29.61-3.65,2.97-3.03,5.26,1.11,4.14,5.4,7.56,5.4,7.56"/><path class="cls-1" d="m73.4,214.83c.57,1.52,1.49,1.52,2.06,0,0,0,3.26-4.4,3.26-8.69,0-2.37-1.92-4.29-4.29-4.29s-4.29,1.92-4.29,4.29c0,4.29,3.26,8.69,3.26,8.69"/><path class="cls-1" d="m55.06,214.38c.16,1.61,1.05,1.85,1.99.53,0,0,4.29-3.41,5.4-7.56.61-2.29-.75-4.64-3.03-5.26-2.29-.61-4.64.75-5.26,3.03-1.11,4.15.9,9.24.9,9.24"/><path class="cls-2" d="m131.89,180.51v5.83h-8.61v-5.83h-5.6v16.64h5.6v-6.47h8.61v6.47h5.57v-16.64h-5.57Zm20.1,3.49l2.43,6.18h-4.9l2.46-6.18Zm-4.1-3.49l-7.33,16.64h6.18l1.38-3.46h7.71l1.38,3.46h6.18l-7.36-16.64h-8.13Zm18.6,0v16.64h15.4v-4.32h-9.79v-12.32h-5.6Zm28.93,3.49l2.43,6.18h-4.9l2.46-6.18Zm-4.1-3.49l-7.33,16.64h6.18l1.38-3.46h7.71l1.38,3.46h6.18l-7.36-16.64h-8.13Zm18.6,0v16.64h15.4v-4.32h-9.79v-12.32h-5.6Zm18.63,16.64h5.6v-16.64h-5.6v16.64Zm8.99-16.64v4.19h6.37v12.45h5.92v-12.45h6.34v-4.19h-18.63Z"/><path class="cls-2" d="m197.03,172.09h5.7v-12.16h3.62c4,0,4.55.86,4.55,4.61v7.55h5.7v-7.36c0-7.43-2.14-9.28-10.11-9.28h-9.44v16.64Zm-16.52,0h5.89l7.65-16.58v-.06h-12.9v-4.32h-5.47v8.8h10.53l-5.7,12.16Zm-20.04,0h5.89l7.65-16.58v-.06h-12.9v-4.32h-5.47v8.8h10.53l-5.7,12.16Zm-13.57-7.52h5.7v-9.12h-8.77v4.48h3.07v4.64Zm-29.86,7.52h3.39c4.58,0,6.5-2.21,6.5-6.24v-5.92h7.65v12.16h5.7v-16.64h-22.92v4.48h4.03v5.76c0,1.7-.58,1.92-2.24,1.92h-2.11v4.48Z"/><path class="cls-2" d="m204.58,110.36c.49-1.04,1.17-1.9,2.03-2.59.86-.69,1.95-1.04,3.24-1.04.86,0,1.85.14,2.96.41,1.11.27,2.33.66,3.65,1.15-.81,1.15-1.88,2.13-3.22,2.92-1.34.79-2.82,1.38-4.43,1.77-1.61.39-3.27.58-4.97.58h-.35c.23-1.09.59-2.16,1.08-3.2m4.39,8.13c2.12-1.27,4.1-3.03,5.94-5.29,1.84-2.26,3.72-4.86,5.62-7.8l-.13-.52c-.37-.11-.92-.28-1.64-.5-.72-.22-1.59-.51-2.59-.89-2.1-.78-3.93-1.17-5.49-1.17-1.24,0-2.31.31-3.2.93-.89.62-1.77,1.65-2.64,3.09-.61,1.04-1.12,2.07-1.56,3.11-.43,1.04-.76,1.96-.97,2.77-.22.81-.34,1.41-.37,1.82-.17.06-.42.23-.76.52-.33.29-.63.7-.91,1.23-.27.53-.41,1.25-.41,2.14,0,1.64.61,2.46,1.82,2.46,2.74,0,5.17-.63,7.28-1.9m-16.66,5.1c1.01-.72,1.89-1.69,2.64-2.92.75-1.22,1.37-2.6,1.86-4.13.2.58.48,1.16.82,1.75.35.59.85,1.09,1.51,1.49.66.4,1.51.61,2.55.61.55,0,1.13-.14,1.75-.41.62-.27,1.15-.73,1.6-1.36.45-.63.67-1.5.67-2.59,0-1.64-.62-2.46-1.86-2.46-1.12,0-2-.28-2.64-.84-.63-.56-1.1-1.33-1.38-2.29-.29-.97-.47-2.03-.54-3.2-.07-1.17-.11-2.36-.11-3.57,0-3.05.07-5.71.22-7.95.14-2.25.35-4.09.61-5.53l-.91-.26c-.66,1.59-1.2,3.16-1.62,4.73-.42,1.57-.7,3.47-.84,5.68-.12,2.16-.22,3.96-.32,5.4-.1,1.44-.18,2.63-.24,3.57-.06.94-.12,1.69-.17,2.27-.06.58-.12,1.08-.17,1.51-.23,1.59-.75,2.76-1.56,3.52-.81.76-1.86,1.17-3.16,1.23-.55,0-1.12.14-1.73.43-.61.29-1.13.74-1.58,1.36-.45.62-.67,1.48-.67,2.57,0,1.64.62,2.46,1.86,2.46s2.41-.36,3.41-1.08m-11.84,3.15c.92-.69,1.67-1.56,2.25-2.62.58-1.05,1.04-2.15,1.38-3.31.17.52.43,1.07.78,1.66.35.59.85,1.1,1.51,1.51.66.42,1.53.63,2.59.63.55,0,1.12-.14,1.73-.41.61-.27,1.13-.73,1.58-1.36.45-.63.67-1.5.67-2.59,0-1.64-.62-2.46-1.86-2.46-1.1,0-1.95-.27-2.57-.8-.62-.53-1.08-1.26-1.38-2.18-.3-.92-.49-1.97-.56-3.16-.07-1.18-.11-2.42-.11-3.72,0-4.12.09-7.63.28-10.52.19-2.9.44-5.18.76-6.85l-.86-.3c-.55,1.33-1,2.59-1.36,3.8-.36,1.21-.63,2.44-.8,3.7-.17,1.25-.3,2.66-.39,4.21-.09,1.99-.19,3.8-.32,5.45-.13,1.64-.22,3.14-.28,4.5-.06,1.33-.12,2.44-.19,3.33-.07.89-.17,1.59-.28,2.07-.81,3.92-2.35,5.88-4.63,5.88-.66,0-1.27.26-1.84.78-.56.52-.84,1.22-.84,2.12,0,.61.15,1.04.45,1.3.3.26.57.39.8.39,1.41,0,2.58-.35,3.5-1.04m-13.81,6.59c.76-.27,1.56-.77,2.4-1.49.81-.66,1.9-1.97,3.28-3.93.58-.78,1.01-1.17,1.3-1.17.23,0,.65.17,1.25.52.61.35,1.31.52,2.12.52.58,0,1.17-.24,1.77-.73.61-.49.91-1.22.91-2.2,0-.4-.11-.78-.32-1.12-.22-.35-.51-.52-.89-.52-.72,0-1.33-.15-1.82-.45-.49-.3-1.05-.45-1.69-.45-.69,0-1.28.36-1.77,1.08-.49.72-.84,1.24-1.06,1.56-.22.32-.37.54-.45.67-.09.13-.22.3-.39.5-.98,1.18-1.97,1.99-2.98,2.42-1.01.43-1.93.65-2.77.65-.66,0-1.27.26-1.84.78-.56.52-.84,1.23-.84,2.12,0,.52.14.93.41,1.23.27.3.56.45.84.45.92,0,1.76-.14,2.53-.41m5.34,13.29c1.82-1.3,2.92-2.41,3.33-3.33.86.69,1.79,1.53,2.77,2.51h.39c2.3-1.64,3.46-3.01,3.46-4.11,0-.58-.28-1.15-.84-1.71-.56-.56-1.42-1.2-2.57-1.92h-.35c-.26.14-.71.55-1.34,1.23-.63.68-1.21,1.33-1.73,1.97-.26-.4-.63-.79-1.12-1.17-.49-.38-1.09-.78-1.82-1.21h-.39c-.23.11-.6.44-1.1.97-.5.53-1.01,1.09-1.51,1.69-.5.59-.89,1.07-1.15,1.45v.39c.58.46,1.16.96,1.75,1.49.59.53,1.2,1.12,1.84,1.75h.39Zm-36.76-1.99c2.58-.29,5.11-.73,7.59-1.34,2.48-.61,4.78-1.38,6.92-2.31,2.13-.94,3.95-2.05,5.45-3.35.92-.81,1.79-1.8,2.59-2.98.81-1.18,1.53-2.56,2.16-4.15.32,1.1.87,1.91,1.66,2.44.79.53,1.65.8,2.57.8.58,0,1.17-.24,1.77-.73.61-.49.91-1.22.91-2.2,0-.43-.11-.82-.32-1.17-.22-.35-.53-.52-.93-.52-2.39,0-3.96-.48-4.71-1.43l.26-.95-.86-.26c-.4.75-.84,1.49-1.32,2.23-.48.73-1.14,1.48-1.99,2.23-.85.75-2.05,1.53-3.61,2.33-1.35.69-2.93,1.33-4.73,1.9-1.8.58-3.72,1.07-5.77,1.49-2.05.42-4.11.74-6.2.97-2.09.23-4.1.35-6.03.35-3.17,0-5.71-.12-7.61-.37-1.9-.24-3.26-.74-4.08-1.49-.82-.75-1.23-1.89-1.23-3.41v-.71c0-.24.01-.47.04-.67l-1.3-.22c-.72,2.45-1.08,4.55-1.08,6.31,0,2.05.56,3.62,1.69,4.73,1.12,1.11,2.62,1.87,4.5,2.29,1.87.42,3.95.63,6.22.63,2.39,0,4.88-.14,7.46-.43m.32-22.04c1.79-1.27,2.91-2.36,3.37-3.28.4.35.84.73,1.3,1.15.46.42.94.87,1.43,1.36h.39c2.31-1.64,3.46-3.01,3.46-4.11,0-.58-.28-1.15-.84-1.71-.56-.56-1.42-1.2-2.57-1.92h-.35c-.17.12-.45.35-.82.71-.38.36-.76.76-1.17,1.21-.4.45-.76.87-1.08,1.28-.26-.4-.64-.8-1.15-1.19-.5-.39-1.1-.8-1.79-1.23h-.39c-.23.14-.59.48-1.08.99-.49.52-.99,1.07-1.49,1.66-.5.59-.9,1.09-1.19,1.49v.39c.58.46,1.16.95,1.75,1.47.59.52,1.2,1.1,1.84,1.73h.39Z"/></svg>