<?xml version="1.0" encoding="UTF-8"?><svg id="Layer_1" xmlns="http://www.w3.org/2000/svg" viewBox="0 0 300 300"><defs><style>.cls-1{fill:#2d2a2b;stroke-width:0px;}</style></defs><path class="cls-1" d="m91.73,132.97h-7.26c-.36,0-.65-.29-.65-.65v-17.64c0-.65-.53-1.17-1.17-1.17h-28.83c-.65,0-1.17.53-1.17,1.17l-.03,17.65c0,.36-.29.64-.65.64h-7.27c-.65,0-1.17.53-1.17,1.17v26.55c0,.36-.29.65-.65.65h-4c-.65,0-1.17.53-1.17,1.17v28.97c0,.65.53,1.17,1.17,1.17h4c.36,0,.65.29.65.65v3.38c0,.65.53,1.17,1.17,1.17h13.78c.36,0,.65.29.65.65v3.37c0,.65.53,1.17,1.17,1.17h15.82c.65,0,1.17-.53,1.17-1.17v-3.37c0-.36.29-.65.65-.65h13.78c.65,0,1.17-.53,1.17-1.17v-62.54c0-.65-.53-1.17-1.17-1.17m-48.21,42.83v13.62c0,.36-.29.65-.65.65h-1.92c-.36,0-.65-.29-.65-.65v-19.01c0-.36.29-.65.65-.65h1.92c.36,0,.65.29.65.65v5.4Zm0-9.29c0,.36-.29.65-.65.65h-1.92c-.36,0-.65-.29-.65-.65v-1.92c0-.36.29-.65.65-.65h1.92c.36,0,.65.29.65.65v1.92Zm39.42-11.23c.12-.16.31-.25.51-.25h3.79c.56,0,.86.66.48,1.08l-6.93,7.79c-.12.14-.3.22-.48.22h-2.95c-.54,0-.84-.62-.51-1.05l6.09-7.79Zm-21.87-17.12c.36,0,.65.29.65.65v1.3c0,.36.29.65.65.65h2.39c.18,0,.36.08.48.21l2.5,2.73c.26.28.7.28.96,0l2.5-2.73c.12-.13.3-.21.48-.21h2.39c.36,0,.65-.29.65-.65v-1.3c0-.36.29-.65.65-.65h0c.36,0,.65-.29.65-.65v-1.3c0-.36.29-.65.65-.65h1.64c.55,0,.85.65.5,1.07l-10.08,11.91c-.26.31-.73.31-.99,0l-10.1-11.91c-.36-.42-.06-1.07.5-1.07h1.67c.36,0,.65.29.65.65v1.3c0,.36.29.65.65.65m7.14-.22c.72,0,1.3-.58,1.3-1.3v-1.07h1.95c.36,0,.65.29.65.65v1.3c0,.36-.29.65-.65.65h-.94c-.18,0-.36.08-.48.21l-1.35,1.48c-.26.28-.7.28-.96,0l-1.35-1.48c-.12-.13-.3-.21-.48-.21h-.93c-.36,0-.65-.29-.65-.65v-1.3c0-.36.29-.65.65-.65h1.95v1.07c0,.72.58,1.3,1.3,1.3m1.3,13.92c0-.15.05-.3.15-.42l10.38-12.27c.39-.46,1.14-.19,1.14.42v13.51c0,.14-.05.29-.14.4l-7.33,9.38c-.24.31-.69.33-.97.06l-3.05-3.05c-.12-.12-.19-.29-.19-.46v-7.56Zm-14.28-35.1c0-.36.29-.65.65-.65h10.38c.36,0,.65.29.65.65v4.55c0,.72.58,1.3,1.3,1.3s1.3-.58,1.3-1.3v-4.55c0-.36.29-.65.65-.65h10.41c.36,0,.65.29.65.65v16.22h-25.34c-.36,0-.65-.29-.65-.65v-15.57Zm0,22.86c0-.6.75-.88,1.14-.42l10.38,12.24c.1.12.15.27.15.42v7.56c0,.17-.07.34-.19.46l-3.06,3.06c-.28.28-.73.25-.97-.06l-7.32-9.39c-.09-.11-.14-.25-.14-.4v-13.48Zm-2.28,15.41c.2,0,.39.09.51.25l6.08,7.8c.33.43.03,1.05-.51,1.05h-2.93c-.18,0-.36-.08-.48-.22l-6.95-7.8c-.37-.42-.08-1.08.48-1.08h3.79Zm-6.84-18.8c0-.36.29-.65.65-.65h.68c.36,0,.65.29.65.65v1.93s0,0,0,0v2.61c0,.72.58,1.3,1.3,1.3s1.3-.58,1.3-1.3v-2.38s0,0,0-.01v-2.15c0-.36.29-.65.65-.65h.62c.36,0,.65.29.65.65v15.56c0,.36-.29.65-.65.65h-5.19c-.36,0-.65-.29-.65-.65v-15.56Zm0,33.54v-10.92c0-.6.74-.88,1.13-.43l5.86,6.58c.22.25.22.62,0,.86l-5.86,6.57c-.4.44-1.13.16-1.13-.43v-2.23Zm12.36,25.51h-1.3c-.36,0-.65-.29-.65-.65v-3.89c0-.36-.29-.65-.65-.65h-1.3c-.36,0-.65.29-.65.65v3.89c0,.36-.29.65-.65.65h-1.3c-.36,0-.65-.29-.65-.65v-3.89c0-.36-.29-.65-.65-.65h-1.3c-.36,0-.65.29-.65.65v3.89c0,.36-.29.65-.65.65h-1.33c-.36,0-.65-.29-.65-.65v-15.57c0-.36.29-.65.65-.65h11.69c.36,0,.65.29.65.65l.03,15.57c0,.36-.29.65-.65.65m16.22,2.6v1.95c0,.36-.29.65-.65.65h0c-.36,0-.65-.29-.65-.65v-4.53c0-.72-.58-1.3-1.3-1.3s-1.3.58-1.3,1.3v4.53c0,.36-.29.65-.65.65h-3.89c-.36,0-.65-.29-.65-.65v-4.53c0-.72-.59-1.3-1.3-1.3s-1.3.58-1.3,1.3v4.53c0,.36-.29.65-.64.65s-.65-.29-.65-.65v-15.57c0-.36.29-.65.65-.65h11.68c.36,0,.65.29.65.65v13.63Zm-2.32-17.32c.17.17.05.45-.19.45h-8.03c-.24,0-.35-.28-.19-.45l3.74-3.74c.25-.25.66-.25.92,0l3.74,3.74Zm-2.91-6.85v-.98c0-.58.7-.87,1.11-.46l3.89,3.89c.12.12.19.29.19.46v1.56c0,.37-.44.55-.7.29l-4.3-4.3c-.12-.12-.19-.29-.19-.46m-2.6,0c0,.17-.07.34-.19.46l-4.27,4.27c-.26.26-.7.08-.7-.29v-1.56c0-.17.07-.34.19-.46l3.86-3.86c.41-.41,1.11-.12,1.11.46v.98Zm2.5-6.32c-.66-.66-1.73-.66-2.4,0l-8.23,8.23c-.12.12-.29.19-.46.19h-9.13c-.56,0-.86-.66-.48-1.08l6.94-7.79c.12-.14.3-.22.48-.22h7.18c.17,0,.34-.07.46-.19l4-4.01c.25-.25.66-.25.92,0l4.01,4.01c.12.12.29.19.46.19h7.18c.18,0,.36.08.48.22l6.94,7.79c.37.42.08,1.08-.48,1.08h-9.19c-.17,0-.34-.07-.46-.19l-8.23-8.23Zm20.93,27.24c0,.36-.29.65-.65.65h-1.33c-.36,0-.65-.29-.65-.65v-3.89c0-.36-.29-.65-.65-.65h-1.3c-.36,0-.65.29-.65.65v3.89c0,.36-.29.65-.65.65h-1.3c-.36,0-.65-.29-.65-.65v-3.89c0-.36-.29-.65-.65-.65h-1.3c-.36,0-.65.29-.65.65v3.89c0,.36-.29.65-.65.65h-1.3c-.36,0-.65-.29-.65-.65v-15.57c0-.36.29-.65.65-.65h11.71c.36,0,.65.29.65.65v15.57Zm0-22.63c0,.6-.74.88-1.13.43l-5.86-6.57c-.22-.25-.22-.62,0-.86l5.86-6.58c.4-.45,1.13-.17,1.13.43v13.16Zm0-20.22c0,.36-.29.65-.65.65h-5.22c-.36,0-.65-.29-.65-.65v-16.21h1.3c.36,0,.65.29.65.65v3.56s0,0,0,0v.98c0,.72.58,1.3,1.3,1.3s1.3-.58,1.3-1.3v-2.61s0,0,0,0v-1.93c0-.36.29-.65.65-.65h.68c.36,0,.65.29.65.65v15.56Z"/><path class="cls-1" d="m49.39,149.85c.72,0,1.3-.58,1.3-1.3v-2.61c0-.36-.29-.65-.65-.65h-1.3c-.36,0-.65.29-.65.65v2.61c0,.72.58,1.3,1.3,1.3"/><path class="cls-1" d="m87.68,145.3h-1.3c-.36,0-.65.29-.65.65v2.61c0,.72.58,1.3,1.3,1.3s1.3-.58,1.3-1.3v-2.61c0-.36-.29-.65-.65-.65"/><path class="cls-1" d="m86.38,181.63c-.72,0-1.3.58-1.3,1.3v2.61c0,.36.29.65.65.65h1.3c.36,0,.65-.29.65-.65v-2.61c0-.72-.58-1.3-1.3-1.3"/><path class="cls-1" d="m81.19,181.63c-.72,0-1.3.58-1.3,1.3v2.61c0,.36.29.65.65.65h1.3c.36,0,.65-.29.65-.65v-2.61c0-.72-.58-1.3-1.3-1.3"/><path class="cls-1" d="m72.1,186.18c-.72,0-1.3.58-1.3,1.3v2.61c0,.36.29.65.65.65h1.3c.36,0,.65-.29.65-.65v-2.61c0-.72-.58-1.3-1.3-1.3"/><path class="cls-1" d="m68.21,186.18c-.72,0-1.3.58-1.3,1.3v2.61c0,.36.29.65.65.65h1.3c.36,0,.65-.29.65-.65v-2.61c0-.72-.58-1.3-1.3-1.3"/><path class="cls-1" d="m64.31,186.18c-.72,0-1.3.58-1.3,1.3v2.61c0,.36.29.65.65.65h1.3c.36,0,.65-.29.65-.65v-2.61c0-.72-.58-1.3-1.3-1.3"/><path class="cls-1" d="m68.21,193.98c-.72,0-1.3.58-1.3,1.3v.65c0,.36.29.65.65.65h1.3c.36,0,.65-.29.65-.65v-.65c0-.72-.58-1.3-1.3-1.3"/><path class="cls-1" d="m55.23,181.63c-.72,0-1.3.58-1.3,1.3v2.61c0,.36.29.65.65.65h1.3c.36,0,.65-.29.65-.65v-2.61c0-.72-.58-1.3-1.3-1.3"/><path class="cls-1" d="m50.04,181.63c-.72,0-1.3.58-1.3,1.3v2.61c0,.36.29.65.65.65h1.3c.36,0,.65-.29.65-.65v-2.61c0-.72-.58-1.3-1.3-1.3"/><path class="cls-1" d="m72.11,130.39c.72,0,1.3-.58,1.3-1.3v-2.61c0-.36-.29-.65-.65-.65h-1.3c-.36,0-.65.29-.65.65v2.61c0,.72.58,1.3,1.3,1.3"/><path class="cls-1" d="m77.3,130.39c.72,0,1.3-.58,1.3-1.3v-2.61c0-.36-.29-.65-.65-.65h-1.3c-.36,0-.65.29-.65.65v2.61c0,.72.58,1.3,1.3,1.3"/><path class="cls-1" d="m72.11,122.6c.72,0,1.3-.58,1.3-1.3v-2.61c0-.36-.29-.65-.65-.65h-1.3c-.36,0-.65.29-.65.65v2.61c0,.72.58,1.3,1.3,1.3"/><path class="cls-1" d="m77.3,122.6c.72,0,1.3-.58,1.3-1.3v-2.61c0-.36-.29-.65-.65-.65h-1.3c-.36,0-.65.29-.65.65v2.61c0,.72.58,1.3,1.3,1.3"/><path class="cls-1" d="m59.13,130.39c.72,0,1.3-.58,1.3-1.3v-2.61c0-.36-.29-.65-.65-.65h-1.3c-.36,0-.65.29-.65.65v2.61c0,.72.58,1.3,1.3,1.3"/><path class="cls-1" d="m64.32,130.39c.72,0,1.3-.58,1.3-1.3v-2.61c0-.36-.29-.65-.65-.65h-1.3c-.36,0-.65.29-.65.65v2.61c0,.72.58,1.3,1.3,1.3"/><path class="cls-1" d="m59.13,122.6c.72,0,1.3-.58,1.3-1.3v-2.61c0-.36-.29-.65-.65-.65h-1.3c-.36,0-.65.29-.65.65v2.61c0,.72.58,1.3,1.3,1.3"/><path class="cls-1" d="m64.32,122.6c.72,0,1.3-.58,1.3-1.3v-2.61c0-.36-.29-.65-.65-.65h-1.3c-.36,0-.65.29-.65.65v2.61c0,.72.58,1.3,1.3,1.3"/><path class="cls-1" d="m68.21,130.39c.72,0,1.3-.58,1.3-1.3v-2.61c0-.36-.29-.65-.65-.65h-1.3c-.36,0-.65.29-.65.65v2.61c0,.72.58,1.3,1.3,1.3"/><polygon class="cls-1" points="154.56 152.8 143.37 152.8 143.37 143.46 149.18 143.46 149.18 148.04 162.88 148.04 162.88 148.11 154.76 165.72 148.5 165.72 154.56 152.8"/><path class="cls-1" d="m165.06,160.96h4.69l-4.59-12.91h6.05l4.56,12.85c4.25-.34,4.49-1.8,4.49-6.29v-6.56h6.05v6.56c0,7.78-3.06,11.11-13.05,11.11h-8.19v-4.76Z"/><path class="cls-1" d="m190.49,160.96h13.93v-3.06c0-4.18-.58-5.1-4.83-5.1h-3.06v4.93h-6.05v-9.69h9.24c8.46,0,10.74,1.97,10.74,9.86v7.82h-19.99v-4.76Z"/><path class="cls-1" d="m218.2,152.8h-3.91v-4.76h12.34c8.46,0,10.74,1.97,10.74,9.86v7.82h-11.69v-4.76h5.64v-3.06c0-4.18-.58-5.1-4.83-5.1h-2.31l-3.43,12.92h-6.05l3.5-12.92Z"/><path class="cls-1" d="m242,165.75h6.05v-8.94h-6.05v8.94Zm-.41-17.67v4.72h14.65v12.92h6.05v-17.67l-20.7.03Z"/><polygon class="cls-1" points="114.97 178.82 120.92 178.82 120.92 185.69 131.12 185.69 131.12 178.82 137.07 178.82 137.07 197.86 131.12 197.86 131.12 190.31 120.92 190.31 120.92 197.86 114.97 197.86 114.97 178.82"/><path class="cls-1" d="m149.69,194.7c2.18,0,4.18-1.22,4.25-3.16v-.24c-1.05-.24-2.01-.31-3.13-.31-2.35,0-3.67.71-3.67,1.9s.88,1.8,2.55,1.8m-8.06-.75c0-3.88,3.84-5.68,8.8-5.68,1.22,0,2.41.14,3.5.41-.1-2.21-1.46-2.92-4.38-2.92-2.04,0-4.49.17-6.97,1.05v-3.98c2.75-.82,5.81-.98,7.75-.98,6.36,0,9.45,1.9,9.45,7.14v8.87h-5.85v-1.7c-1.49,1.32-3.77,2-6.25,2-4.15,0-6.05-1.87-6.05-4.21"/><polygon class="cls-1" points="164.38 178.82 169.74 178.82 177.05 187.49 184.33 178.82 189.8 178.82 189.8 197.86 184.39 197.86 184.39 188.51 184.7 185.86 178.24 193.47 175.83 193.47 169.58 185.86 169.78 188.51 169.78 197.86 164.38 197.86 164.38 178.82"/><path class="cls-1" d="m194.94,182.22h5.85v15.63h-5.85v-15.63Zm0-6.63h5.85v4.25h-5.85v-4.25Z"/><path class="cls-1" d="m226.66,182.26v-.17c0-2.28,1.26-2.86,3.84-2.86.68,0,1.53.1,2.01.17v-3.74c-.61-.17-1.26-.34-2.18-.34-5.47,0-9.31,1.43-9.52,6.93h-7.28v-.17c0-2.28,1.26-2.86,3.84-2.86.68,0,1.53.1,2.01.17v-3.74c-.61-.17-1.26-.34-2.18-.34-5.47,0-9.31,1.43-9.52,6.93h-3.33v3.77h3.33v11.83h5.85v-11.83h7.28v11.83h5.85v-11.83h5.85v-3.77h-5.85Z"/><path class="cls-1" d="m242.58,194.7c2.18,0,4.18-1.22,4.25-3.16v-.24c-1.05-.24-2-.31-3.13-.31-2.35,0-3.67.71-3.67,1.9s.88,1.8,2.55,1.8m-8.05-.75c0-3.88,3.84-5.68,8.8-5.68,1.22,0,2.41.14,3.5.41-.1-2.21-1.46-2.92-4.38-2.92-2.04,0-4.49.17-6.97,1.05v-3.98c2.75-.82,5.81-.98,7.75-.98,6.36,0,9.45,1.9,9.45,7.14v8.87h-5.85v-1.7c-1.5,1.32-3.77,2-6.25,2-4.15,0-6.05-1.87-6.05-4.21"/><rect class="cls-1" x="256.45" y="175.6" width="5.85" height="22.26"/><path class="cls-1" d="m166.82,102.86c-1.28-1.31-2.54-2.43-3.78-3.37v-.41c.27-.39.68-.9,1.21-1.53.53-.62,1.06-1.21,1.6-1.78.53-.56.92-.92,1.16-1.07h.41c1.4.88,2.34,1.62,2.82,2.21.49.59.73,1.15.73,1.66,0,1.09-1.26,2.52-3.78,4.28h-.37Z"/><path class="cls-1" d="m207.07,101.54c0,.73-.29,1.1-.87,1.1h-.36c-.58,0-1.35-.05-2.32-.14-.97-.09-2.16-.21-3.56-.37.97-1.37,1.58-2.93,1.82-4.7,1.64.58,2.93,1.18,3.87,1.8.94.62,1.41,1.39,1.41,2.3m-7.8-3.19c0,.73-.19,1.32-.57,1.78-.38.46-1.01.94-1.89,1.46-2.95-.3-4.42-1.23-4.42-2.78,0-.58.18-1.16.55-1.75.36-.59.81-1.09,1.34-1.5.53-.41,1.06-.62,1.57-.62.85,0,1.63.3,2.35.91.71.61,1.07,1.44,1.07,2.51m-27.9,20.88c0,1.06-.85,2.1-2.55,3.1-1.18,0-2.21-.28-3.08-.84-.87-.56-1.3-1.38-1.3-2.44,0-.91.41-1.64,1.23-2.19.82-.55,1.65-.82,2.51-.82,1.03,0,1.82.35,2.37,1.05.55.7.82,1.41.82,2.14m37.65-19.42c0-.94-.2-1.79-.59-2.55-.4-.76-1.03-1.49-1.92-2.19-.42-.34-1.12-.78-2.07-1.32-.96-.55-2.18-1.17-3.67-1.87-2.52-1.21-4-2.3-4.42-3.24l-.41-.09c-1.31,1.91-1.96,3.33-1.96,4.24,0,.15.02.24.05.27l-1.82,1.87c-1.49,1.91-2.23,3.78-2.23,5.61,0,1.49.59,2.63,1.78,3.42-1.52,1-2.77,2.1-3.74,3.31s-1.69,2.35-2.16,3.44c-.36.83-.58,1.53-.66,2.1-.74.49-1.5,1.27-2.28,2.37l-1.32,1.87c-2.4,3.43-5.34,5.2-8.82,5.32-.08-.02-.16-.03-.26-.03h-.18c1.06-1.73,1.6-3.66,1.6-5.79,0-1.52-.4-2.78-1.21-3.78-.81-1-1.91-1.5-3.31-1.5-1.15,0-2.18.33-3.08.98-.9.65-1.66,1.48-2.28,2.48-.62,1-1.1,2.05-1.41,3.15-.32,1.09-.48,2.08-.48,2.96,0,1.76.68,3.15,2.05,4.15-.82.49-1.92.97-3.31,1.46-1.29.45-2.8.73-4.5.84-.06,0-.11-.02-.17-.02-.52,0-.9-.06-1.14-.18.88-.82,1.52-1.55,1.92-2.19.4-.64.59-1.32.59-2.05,0-.79-.25-1.44-.75-1.94-.5-.5-1.14-.87-1.92-1.12-.78-.24-1.59-.36-2.44-.36-1.43,0-2.8.35-4.1,1.05-1.31.7-2.29,1.78-2.96,3.24l.23.41h.68c.82,0,1.51.26,2.07.78.56.52,1.12,1.31,1.66,2.37-1.46.7-3.09,1.05-4.88,1.05-1.58,0-2.79-.38-3.62-1.14-.84-.76-1.4-1.88-1.69-3.37-.29-1.49-.43-3.31-.43-5.47,0-3.16.05-5.81.16-7.95.11-2.14.24-3.88.41-5.22.17-1.34.33-2.39.48-3.14l-.96-.37c-.49,1.19-.9,2.26-1.23,3.24-.34.97-.62,1.98-.87,3.03-.24,1.05-.43,2.25-.57,3.6-.14,1.35-.25,3-.34,4.95l-.96,23.02c-.12,2.49-.24,4.38-.34,5.65-.11,1.28-.24,2.32-.39,3.15-.15.97-.56,2.15-1.23,3.53-.67,1.38-1.66,2.76-2.96,4.13-1.37,1.43-3.05,2.53-5.04,3.3-1.99.78-4.09,1.16-6.31,1.16-1.31,0-2.6-.16-3.88-.48-1.28-.32-2.42-.86-3.44-1.62-1.02-.76-1.83-1.81-2.44-3.14-.61-1.34-.91-3.01-.91-5.01,0-1.55.21-3.2.64-4.95.42-1.75,1.06-3.65,1.91-5.72l-1.28-.5c-1.61,3.4-2.74,6.53-3.37,9.37-.64,2.84-.96,5.68-.96,8.5,0,2.07.42,3.99,1.25,5.77.84,1.78,2.1,3.21,3.81,4.31,1.7,1.09,3.84,1.64,6.43,1.64s4.76-.49,6.82-1.46c2.05-.97,3.89-2.33,5.52-4.08,1.63-1.75,3.03-3.75,4.22-5.99,1.43-2.74,2.51-5.39,3.24-7.95.73-2.57,1.23-4.85,1.5-6.84.27-1.99.42-3.47.46-4.44l.14-3.74c.36.36.88.7,1.55,1,.67.3,1.49.46,2.46.46.85,0,1.69-.14,2.53-.41.83-.27,1.78-.78,2.85-1.53,1.06-.74,2.36-1.82,3.88-3.21.69.47,1.48.71,2.36.76.1.04.19.07.28.07,1.79,0,3.75-.34,5.86-1.03,2.11-.68,4.58-2,7.41-3.94.18.03.37.04.57.04h.61c.67,0,1.23,0,1.68-.03.06.02.13.03.19.03,1.64,0,3.11-.4,4.4-1.18,1.29-.79,2.7-1.98,4.22-3.56,1.03-1.06,1.88-1.88,2.53-2.46.65-.58,1.15-.87,1.48-.87.18,0,.46.05.82.14.3.06.84.29,1.6.68.7.36,1.25.55,1.64.55.67,0,1.29-.32,1.87-.96.58-.64,1.05-1.38,1.41-2.21.36-.84.56-1.53.59-2.08,0-.07-.03-.15-.06-.22-.03-.3-.13-.57-.3-.8-.21-.29-.62-.59-1.23-.89l-1.14-.59c-.67-.36-1-.76-1-1.18,0-.88.64-1.71,1.92-2.49,1.28-.77,3.24-1.75,5.88-2.94,3.28.64,6.05.96,8.3.96,1.09,0,2-.29,2.74-.87.61-.49,1.12-1.21,1.55-2.16.42-.96.64-2.06.64-3.31"/></svg>